<svg width="29" height="25" viewBox="0 0 29 25" fill="none" xmlns="http://www.w3.org/2000/svg">
<path fill-rule="evenodd" clip-rule="evenodd" d="M19.8161 1.55957C19.1554 0.587273 18.0208 0 16.803 0H11.2925C10.074 0 8.93877 0.58799 8.27828 1.56126L7.37745 2.88867C7.15729 3.21309 6.77888 3.40909 6.3727 3.40909H5.3803C2.40884 3.40909 0 5.69854 0 8.52272V19.8864C0 22.7105 2.40884 25 5.3803 25H22.7168C25.6883 25 28.0971 22.7105 28.0971 19.8864V8.52272C28.0971 5.69854 25.6883 3.40909 22.7168 3.40909H21.724C21.318 3.40909 20.9398 3.21333 20.7196 2.88923L19.8161 1.55957ZM11.2923 1.70454H16.8027C17.4116 1.70454 17.9789 1.99817 18.3093 2.48432L19.2128 3.81398C19.7634 4.62423 20.7089 5.11363 21.7237 5.11363H22.7166C24.6976 5.11363 26.3035 6.63993 26.3035 8.52272V19.8863C26.3035 21.7691 24.6976 23.2954 22.7166 23.2954H5.38008C3.39911 23.2954 1.79322 21.7691 1.79322 19.8863V8.52272C1.79322 6.63993 3.39911 5.11363 5.38008 5.11363H6.37249C7.38794 5.11363 8.33395 4.62363 8.88436 3.81258L9.78519 2.48517C10.1154 1.99853 10.683 1.70454 11.2923 1.70454ZM14.0487 7.38635C17.8455 7.38635 20.9235 10.3118 20.9235 13.9204C20.9235 17.5291 17.8455 20.4545 14.0487 20.4545C10.2518 20.4545 7.17385 17.5291 7.17385 13.9204C7.17385 10.3118 10.2518 7.38635 14.0487 7.38635ZM8.96706 13.9204C8.96706 11.2532 11.2421 9.0909 14.0485 9.0909C16.8548 9.0909 19.1298 11.2532 19.1298 13.9204C19.1298 16.5877 16.8548 18.75 14.0485 18.75C11.2421 18.75 8.96706 16.5877 8.96706 13.9204Z" fill="#262626"/>
</svg>
