<svg width="4" height="14" viewBox="0 0 4 14" fill="none" xmlns="http://www.w3.org/2000/svg">
<path fill-rule="evenodd" clip-rule="evenodd" d="M0.00129446 12.5002C0.00120037 11.6717 0.672697 11.0001 1.50112 11C2.32955 10.9999 3.0012 11.6714 3.00129 12.4998C3.00139 13.3283 2.32989 13.9999 1.50147 14C0.673038 14.0001 0.00138856 13.3286 0.00129446 12.5002ZM0.000669741 7.00017C0.000575643 6.17174 0.672072 5.50009 1.5005 5.5C2.32893 5.49991 3.00058 6.1714 3.00067 6.99983C3.00076 7.82826 2.32927 8.49991 1.50084 8.5C0.672413 8.50009 0.000763839 7.8286 0.000669741 7.00017ZM4.50166e-05 1.50017C-4.90813e-05 0.671743 0.671448 9.34726e-05 1.49987 -6.25234e-07C2.3283 -9.47231e-05 2.99995 0.671402 3.00005 1.49983C3.00014 2.32826 2.32864 2.99991 1.50022 3C0.671788 3.00009 0.000139114 2.3286 4.50166e-05 1.50017Z" fill="#262626"/>
</svg>
