<svg width="15" height="20" viewBox="0 0 15 20" fill="none" xmlns="http://www.w3.org/2000/svg">
<path fill-rule="evenodd" clip-rule="evenodd" d="M5.84253 4.24447L4.55245 1.33728C3.97792 0.0425569 2.72499 -0.386015 1.75395 0.380033C1.58032 0.517011 1.42286 0.687525 1.28671 0.886025C0.317687 2.29876 -0.116084 3.64386 0.02655 4.91932C0.318855 7.53317 1.69711 10.5187 4.14578 13.9083L4.35844 14.1884L4.56881 14.4723L4.57296 14.4682C7.11094 17.7372 9.35012 19.5749 11.3105 19.9646C12.2671 20.1548 13.2759 19.5764 14.3355 18.2844C14.4844 18.1029 14.6122 17.8929 14.715 17.6614C15.2895 16.3667 14.9681 14.6961 13.997 13.9301L11.8166 12.21L11.7082 12.1313C11.1949 11.7901 10.584 11.813 10.0833 12.2008L9.40393 12.7272L9.32501 12.7818C8.97745 12.9946 8.56284 12.8998 8.28803 12.5334L5.59995 8.94929L5.54016 8.86155C5.29686 8.4681 5.25937 7.90946 5.45462 7.46142L5.84938 6.55556C6.16106 5.84035 6.15844 4.95637 5.84253 4.24447ZM13.757 17.4411C12.8606 18.5342 12.092 18.9645 11.4369 18.8343C9.7533 18.4995 7.74266 16.8927 5.41868 13.965L5.01851 13.4531L4.74818 13.0953C2.41625 9.86683 1.13415 7.07418 0.874324 4.7508C0.776645 3.87732 1.09939 2.85256 1.91922 1.65733C1.99825 1.54212 2.08964 1.44314 2.19042 1.36364C2.72273 0.9437 3.40099 1.14226 3.75563 1.79869L3.81476 1.91926L5.10485 4.82645C5.26272 5.18222 5.26403 5.62398 5.10827 5.98141L4.7135 6.88727C4.33885 7.74698 4.40656 8.82488 4.87883 9.5886L4.96556 9.71783L7.68195 13.3415C8.20926 14.0446 9.00805 14.2334 9.6827 13.8204L9.79861 13.7417L10.514 13.189C10.7633 12.9958 11.0686 12.9832 11.3259 13.1541L11.407 13.2138L13.5606 14.9137C14.1242 15.3583 14.3108 16.328 13.9773 17.0795C13.9177 17.2138 13.8434 17.3357 13.757 17.4411Z" fill="white"/>
</svg>
