<svg width="23" height="23" viewBox="0 0 23 23" fill="none" xmlns="http://www.w3.org/2000/svg">
<path fill-rule="evenodd" clip-rule="evenodd" d="M8.95855 4.88114L6.98043 1.53787C6.09948 0.0489405 4.17831 -0.443918 2.68939 0.437038C2.42315 0.594562 2.18172 0.790654 1.97295 1.01893C0.48712 2.64357 -0.177995 4.19044 0.0407101 5.65722C0.488911 8.66315 2.60224 12.0966 6.35686 15.9945L6.68294 16.3166L7.00551 16.6431L7.01187 16.6384C10.9034 20.3978 14.3368 22.5111 17.3428 22.9593C18.8096 23.178 20.3564 22.5129 21.9811 21.0271C22.2093 20.8183 22.4054 20.5768 22.563 20.3106C23.4439 18.8217 22.9511 16.9005 21.4621 16.0196L18.1189 14.0415L17.9526 13.951C17.1655 13.5587 16.2288 13.5849 15.4611 14.0309L14.4194 14.6363L14.2983 14.699C13.7654 14.9438 13.1297 14.8348 12.7083 14.4134L8.58659 10.2917L8.49492 10.1908C8.12186 9.73831 8.06436 9.09588 8.36374 8.58064L8.96905 7.53889C9.44696 6.7164 9.44294 5.69983 8.95855 4.88114ZM21.0941 20.0572C19.7196 21.3143 18.5411 21.8092 17.5366 21.6594C14.955 21.2745 11.8721 19.4266 8.30863 16.0597L7.69504 15.471L7.28053 15.0595C3.7049 11.3468 1.73901 8.13529 1.34061 5.4634C1.19084 4.45891 1.68572 3.28043 2.94279 1.90592C3.06397 1.77342 3.2041 1.6596 3.35863 1.56817C4.17484 1.08524 5.21483 1.31358 5.75862 2.06848L5.84929 2.20713L7.82741 5.55041C8.06949 5.95954 8.0715 6.46757 7.83266 6.8786L7.22735 7.92035C6.65288 8.90902 6.75671 10.1486 7.48086 11.0269L7.61384 11.1755L11.779 15.3428C12.5875 16.1513 13.8123 16.3684 14.8468 15.8934L15.0245 15.8029L16.1214 15.1673C16.5037 14.9452 16.9719 14.9307 17.3663 15.1273L17.4906 15.1959L20.7929 17.1507C21.6571 17.662 21.9432 18.7771 21.4318 19.6414C21.3404 19.7959 21.2266 19.936 21.0941 20.0572Z" fill="#007AFF"/>
</svg>
