<svg width="22" height="22" viewBox="0 0 22 22" fill="none" xmlns="http://www.w3.org/2000/svg">
<path d="M6.98858 1.31557C9.55705 0.251673 12.443 0.251673 15.0114 1.31557C17.5799 2.37946 19.6205 4.42011 20.6844 6.98858C21.7483 9.55705 21.7483 12.443 20.6844 15.0114C19.6205 17.5799 17.5799 19.6205 15.0114 20.6844C12.443 21.7483 9.55705 21.7483 6.98858 20.6844C4.42011 19.6205 2.37946 17.5799 1.31557 15.0114C0.251673 12.443 0.251673 9.55705 1.31557 6.98858C2.37946 4.42011 4.42011 2.37946 6.98858 1.31557Z" fill="#3E4F6D" fill-opacity="0.25"/>
<path d="M15.7653 11.1919H6.31031M11.0378 15.9194V6.46435M1.31557 6.98858C2.37946 4.42011 4.42011 2.37946 6.98858 1.31557C9.55705 0.251673 12.443 0.251673 15.0114 1.31557C17.5799 2.37946 19.6205 4.42011 20.6844 6.98858C21.7483 9.55705 21.7483 12.443 20.6844 15.0114C19.6205 17.5799 17.5799 19.6205 15.0114 20.6844C12.443 21.7483 9.55705 21.7483 6.98858 20.6844C4.42011 19.6205 2.37946 17.5799 1.31557 15.0114C0.251673 12.443 0.251673 9.55705 1.31557 6.98858Z" stroke="#5A5A5A" stroke-linecap="round" stroke-linejoin="round"/>
</svg>
