<svg width="12" height="12" viewBox="0 0 12 12" fill="none" xmlns="http://www.w3.org/2000/svg">
<path d="M5.32727 0.437199C5.38917 0.305981 5.48498 0.195484 5.60387 0.118218C5.72276 0.0409511 5.85998 0 6 0C6.14002 0 6.27724 0.0409511 6.39613 0.118218C6.51502 0.195484 6.61083 0.305981 6.67273 0.437199L8.12017 3.50089L11.3578 3.99296C11.4963 4.01398 11.6265 4.07508 11.7335 4.16934C11.8405 4.26361 11.9201 4.38729 11.9633 4.52638C12.0066 4.66547 12.0117 4.81442 11.9781 4.95639C11.9445 5.09836 11.8736 5.22767 11.7733 5.32971L9.43038 7.71484L9.98386 11.0841C10.0075 11.2282 9.99206 11.3763 9.93932 11.5118C9.88658 11.6472 9.79863 11.7645 9.68542 11.8504C9.5722 11.9363 9.43824 11.9874 9.29867 11.998C9.1591 12.0085 9.0195 11.978 8.89565 11.91L6.00075 10.3194L3.10436 11.91C2.98046 11.9779 2.84086 12.0082 2.70133 11.9975C2.56181 11.9869 2.42792 11.9357 2.31479 11.8497C2.20167 11.7637 2.11382 11.6463 2.06118 11.5109C2.00853 11.3755 1.9932 11.2274 2.01689 11.0833L2.56962 7.71484L0.226709 5.32971C0.126436 5.22767 0.0554934 5.09836 0.0219084 4.95639C-0.0116766 4.81442 -0.00656401 4.66547 0.0366679 4.52638C0.0798997 4.38729 0.159525 4.26361 0.266537 4.16934C0.373548 4.07508 0.503675 4.01398 0.642194 3.99296L3.87983 3.50168L5.32727 0.436415V0.437199Z" fill="#EF802F"/>
</svg>
