<svg width="20" height="20" viewBox="0 0 20 20" fill="none" xmlns="http://www.w3.org/2000/svg">
<path d="M14.3715 7.74237C14.2154 7.58716 14.0042 7.50005 13.784 7.50005C13.5639 7.50005 13.3526 7.58716 13.1965 7.74237L10.2048 10.6924L7.25484 7.74237C7.09871 7.58716 6.8875 7.50005 6.66734 7.50005C6.44719 7.50005 6.23598 7.58716 6.07984 7.74237C6.00174 7.81984 5.93974 7.91201 5.89743 8.01356C5.85513 8.11511 5.83334 8.22403 5.83334 8.33404C5.83334 8.44405 5.85513 8.55297 5.89743 8.65452C5.93974 8.75607 6.00174 8.84824 6.07984 8.92571L9.61318 12.459C9.69064 12.5371 9.78281 12.5991 9.88436 12.6414C9.98591 12.6838 10.0948 12.7055 10.2048 12.7055C10.3149 12.7055 10.4238 12.6838 10.5253 12.6414C10.6269 12.5991 10.719 12.5371 10.7965 12.459L14.3715 8.92571C14.4496 8.84824 14.5116 8.75607 14.5539 8.65452C14.5962 8.55297 14.618 8.44405 14.618 8.33404C14.618 8.22403 14.5962 8.11511 14.5539 8.01356C14.5116 7.91201 14.4496 7.81984 14.3715 7.74237Z" fill="#9F9F9F"/>
</svg>
