<svg width="10" height="25" viewBox="0 0 10 25" fill="none" xmlns="http://www.w3.org/2000/svg">
<mask id="path-1-inside-1_114_2869" fill="white">
<path d="M1.72416 12.5058L9.79084 1.6419C10.0697 1.26626 10.0697 0.657272 9.79084 0.281639C9.51189 -0.0938798 9.05974 -0.0938798 8.78082 0.281639L0.209124 11.8257C-0.0697079 12.2013 -0.0697079 12.8103 0.209124 13.1859L8.78082 24.73C9.06459 25.0991 9.51679 25.0885 9.79084 24.7063C10.0582 24.3335 10.0582 23.7425 9.79084 23.3697L1.72416 12.5058Z"/>
</mask>
<path d="M1.72416 12.5058L9.79084 1.6419C10.0697 1.26626 10.0697 0.657272 9.79084 0.281639C9.51189 -0.0938798 9.05974 -0.0938798 8.78082 0.281639L0.209124 11.8257C-0.0697079 12.2013 -0.0697079 12.8103 0.209124 13.1859L8.78082 24.73C9.06459 25.0991 9.51679 25.0885 9.79084 24.7063C10.0582 24.3335 10.0582 23.7425 9.79084 23.3697L1.72416 12.5058Z" fill="black"/>
<path d="M1.72416 12.5058L-2.29021 9.52505L-4.50348 12.5058L-2.29021 15.4866L1.72416 12.5058ZM9.79084 1.6419L13.8052 4.62265L13.8054 4.62236L9.79084 1.6419ZM9.79084 0.281639L13.8054 -2.69883L13.8046 -2.69998L9.79084 0.281639ZM8.78082 0.281639L4.76689 -2.69969L4.76646 -2.69911L8.78082 0.281639ZM0.209124 11.8257L-3.80524 8.84492L-3.80567 8.8455L0.209124 11.8257ZM0.209124 13.1859L-3.80567 16.1661L-3.80524 16.1667L0.209124 13.1859ZM8.78082 24.73L4.76646 27.7107L4.79142 27.7443L4.81694 27.7775L8.78082 24.73ZM9.79084 24.7063L13.8541 27.6201L13.8542 27.6199L9.79084 24.7063ZM9.79084 23.3697L13.854 20.4558L13.8299 20.4222L13.8052 20.389L9.79084 23.3697ZM5.73852 15.4866L13.8052 4.62265L5.77648 -1.33886L-2.29021 9.52505L5.73852 15.4866ZM13.8054 4.62236C14.6927 3.42725 15 2.08506 15 0.961768C15 -0.161526 14.6927 -1.50371 13.8054 -2.69883L5.77627 3.2621C5.16788 2.44262 5 1.59275 5 0.961768C5 0.330787 5.16788 -0.519088 5.77627 -1.33857L13.8054 4.62236ZM13.8046 -2.69998C12.8772 -3.94832 11.2942 -5 9.28582 -5C7.27742 -5 5.69425 -3.94825 4.76689 -2.69969L12.7948 3.26297C12.1463 4.13601 10.9287 5 9.28582 5C7.64302 5 6.42551 4.13608 5.77712 3.26326L13.8046 -2.69998ZM4.76646 -2.69911L-3.80524 8.84492L4.22349 14.8064L12.7952 3.26239L4.76646 -2.69911ZM-3.80567 8.8455C-4.69278 10.0406 -5 11.3827 -5 12.5058C-5 13.6289 -4.69278 14.971 -3.80567 16.1661L4.22391 10.2058C4.8322 11.0252 5 11.875 5 12.5058C5 13.1366 4.8322 13.9864 4.22391 14.8059L-3.80567 8.8455ZM-3.80524 16.1667L4.76646 27.7107L12.7952 21.7492L4.22349 10.2052L-3.80524 16.1667ZM4.81694 27.7775C5.77612 29.0251 7.39309 30.0457 9.40664 29.9985C11.4089 29.9515 12.9581 28.8695 13.8541 27.6201L5.72762 21.7925C6.34953 20.9253 7.53559 20.0396 9.17231 20.0012C10.8203 19.9626 12.0693 20.8039 12.7447 21.6824L4.81694 27.7775ZM13.8542 27.6199C15.3703 25.5055 15.3705 22.5705 13.854 20.4558L5.72768 26.2836C5.15366 25.4832 4.99134 24.6597 4.99134 24.038C4.99134 23.4163 5.15367 22.5929 5.72747 21.7927L13.8542 27.6199ZM13.8052 20.389L5.73852 9.52505L-2.29021 15.4866L5.77648 26.3505L13.8052 20.389Z" fill="black" mask="url(#path-1-inside-1_114_2869)"/>
</svg>
