<svg width="15" height="20" viewBox="0 0 15 20" fill="none" xmlns="http://www.w3.org/2000/svg">
<path fill-rule="evenodd" clip-rule="evenodd" d="M7.50004 0C9.87451 0 11.7994 1.74434 11.7994 3.8961V9.9567C11.7994 12.1085 9.87451 13.8528 7.50004 13.8528C5.12557 13.8528 3.20068 12.1085 3.20068 9.9567V3.8961C3.20068 1.74434 5.12557 0 7.50004 0ZM0.573248 8.9423C0.858185 8.9423 1.09457 9.13069 1.13899 9.37752L1.1465 9.46178V9.57602C1.1465 12.8142 3.99314 15.4358 7.49999 15.4358C10.9322 15.4358 13.7321 12.9245 13.8496 9.78186L13.8535 9.57602V9.47079C13.8535 9.18389 14.1101 8.95131 14.4267 8.95131C14.7117 8.95131 14.9481 9.1397 14.9925 9.38653L15 9.47079L14.9964 9.7908C14.8789 13.3239 11.8725 16.1909 8.07311 16.4549L8.07324 19.4805C8.07324 19.7674 7.81659 20 7.49999 20C7.21506 20 6.97868 19.8116 6.93425 19.5648L6.92675 19.4805L6.92719 16.455C3.13002 16.1913 0.124871 13.3276 0.00379314 9.7975L0 9.46178C0 9.17488 0.256652 8.9423 0.573248 8.9423ZM4.34765 3.89611C4.34765 2.31816 5.75924 1.03897 7.50052 1.03897C9.2418 1.03897 10.6534 2.31816 10.6534 3.89611V9.95671C10.6534 11.5347 9.2418 12.8139 7.50052 12.8139C5.75924 12.8139 4.34765 11.5347 4.34765 9.95671V3.89611Z" fill="white"/>
</svg>
