<svg width="28" height="18" viewBox="0 0 28 18" fill="none" xmlns="http://www.w3.org/2000/svg">
<path fill-rule="evenodd" clip-rule="evenodd" d="M19.4027 4.64516C19.4027 2.07971 17.3587 0 14.8373 0H4.56533C2.04397 0 0 2.07971 0 4.64516V13.3548C0 15.9203 2.04397 18 4.56533 18H14.8373C17.3587 18 19.4027 15.9203 19.4027 13.3548V4.64516ZM4.56536 1.39358H14.8374C16.6023 1.39358 18.0331 2.84938 18.0331 4.6452V13.3549C18.0331 15.1507 16.6023 16.6065 14.8374 16.6065H4.56536C2.80041 16.6065 1.36963 15.1507 1.36963 13.3549V4.6452C1.36963 2.84938 2.80041 1.39358 4.56536 1.39358ZM27.7259 2.23101C27.8794 2.43402 27.9626 2.68295 27.9626 2.93907V14.7605C27.9626 15.4019 27.4516 15.9218 26.8213 15.9218C26.6101 15.9218 26.403 15.8622 26.2231 15.7495L21.6303 12.8737C20.9552 12.451 20.5439 11.7022 20.5439 10.8957V7.53074C20.5439 6.80965 20.8731 6.12946 21.4348 5.6898L26.1254 2.0186C26.625 1.62755 27.3416 1.72265 27.7259 2.23101ZM22.2699 6.79435L26.593 3.41074V14.3449L22.3481 11.6869C22.0781 11.5178 21.9136 11.2183 21.9136 10.8957V7.53073C21.9136 7.24229 22.0452 6.97021 22.2699 6.79435Z" fill="#007AFF"/>
</svg>
