<svg width="27" height="26" viewBox="0 0 27 26" fill="none" xmlns="http://www.w3.org/2000/svg">
<path d="M9.80603 5.57279C12.1405 4.49799 14.8599 4.49799 17.1944 5.57279C19.5289 6.6476 21.2244 8.68024 21.801 11.0953C22.3776 13.5104 21.7724 16.045 20.1569 17.9818C18.5414 19.9185 16.0913 21.0465 13.5002 21.0465C10.9091 21.0465 8.45904 19.9185 6.84353 17.9818C5.22801 16.045 4.62289 13.5104 5.19946 11.0953C5.77603 8.68024 7.47154 6.6476 9.80603 5.57279Z" fill="#3E4F6D" fill-opacity="0.25"/>
<path d="M11.1377 10.9706C11.1377 11.327 10.8355 11.616 10.4627 11.616C10.0899 11.616 9.78769 11.327 9.78769 10.9706C9.78769 10.6142 10.0899 10.3253 10.4627 10.3253C10.8355 10.3253 11.1377 10.6142 11.1377 10.9706Z" fill="#3E4F6D" fill-opacity="0.25"/>
<path d="M17.2128 10.9706C17.2128 11.327 16.9105 11.616 16.5377 11.616C16.165 11.616 15.8627 11.327 15.8627 10.9706C15.8627 10.6142 16.165 10.3253 16.5377 10.3253C16.9105 10.3253 17.2128 10.6142 17.2128 10.9706Z" fill="#3E4F6D" fill-opacity="0.25"/>
<path d="M17.08 16.329C16.1306 17.2367 14.8429 17.7466 13.5002 17.7466C12.1575 17.7466 10.8699 17.2367 9.92046 16.329M5.19946 11.0953C5.77603 8.68024 7.47154 6.6476 9.80603 5.57279C12.1405 4.49799 14.8599 4.49799 17.1944 5.57279C19.5289 6.6476 21.2244 8.68024 21.801 11.0953C22.3776 13.5104 21.7724 16.045 20.1569 17.9818C18.5414 19.9185 16.0913 21.0465 13.5002 21.0465C10.9091 21.0465 8.45904 19.9185 6.84353 17.9818C5.22801 16.045 4.62289 13.5104 5.19946 11.0953ZM11.1377 10.9706C11.1377 11.327 10.8355 11.616 10.4627 11.616C10.0899 11.616 9.78769 11.327 9.78769 10.9706C9.78769 10.6142 10.0899 10.3253 10.4627 10.3253C10.8355 10.3253 11.1377 10.6142 11.1377 10.9706ZM17.2128 10.9706C17.2128 11.327 16.9105 11.616 16.5377 11.616C16.165 11.616 15.8627 11.327 15.8627 10.9706C15.8627 10.6142 16.165 10.3253 16.5377 10.3253C16.9105 10.3253 17.2128 10.6142 17.2128 10.9706Z" stroke="#414141" stroke-linecap="round" stroke-linejoin="round"/>
</svg>
