<svg width="20" height="20" viewBox="0 0 20 20" fill="none" xmlns="http://www.w3.org/2000/svg">
<path d="M12.9356 15.0245V15.9588C12.9356 17.5067 11.6212 18.7615 9.99973 18.7615C8.37828 18.7615 7.06391 17.5067 7.06391 15.9588V15.0245M12.9356 15.0245H7.06391M12.9356 15.0245H16.4492C16.8236 15.0245 17.0117 15.0245 17.1632 14.9758C17.4528 14.8825 17.6794 14.6654 17.777 14.3891C17.8283 14.2438 17.8283 14.0637 17.8283 13.7035C17.8283 13.5458 17.8281 13.4671 17.8152 13.3919C17.7908 13.2499 17.7331 13.1153 17.6452 12.9984C17.5987 12.9366 17.5396 12.8803 17.4233 12.7691L17.0421 12.4052C16.9191 12.2878 16.85 12.1285 16.85 11.9625V8.48494C16.85 4.87321 13.783 1.94533 9.99973 1.94534C6.21645 1.94534 3.14948 4.87322 3.14948 8.48494V11.9625C3.14948 12.1286 3.08024 12.2878 2.95725 12.4052L2.57608 12.7691C2.45934 12.8806 2.40089 12.9365 2.35436 12.9984C2.26645 13.1154 2.20821 13.2499 2.18379 13.3919C2.17087 13.4671 2.17087 13.5458 2.17087 13.7035C2.17087 14.0637 2.17088 14.2437 2.2222 14.389C2.31987 14.6654 2.54744 14.8825 2.83697 14.9758C2.98856 15.0245 3.17591 15.0245 3.55028 15.0245H7.06391M15.8896 1.02388C17.2393 1.99484 18.3025 3.28294 18.9759 4.76273M4.11045 1.02388C2.76073 1.99484 1.69742 3.28294 1.02406 4.76273" stroke="#DDDDDD" stroke-width="2" stroke-linecap="round" stroke-linejoin="round"/>
</svg>
