<svg width="20" height="15" viewBox="0 0 20 15" fill="none" xmlns="http://www.w3.org/2000/svg">
<path fill-rule="evenodd" clip-rule="evenodd" d="M13.878 3.87097C13.878 1.73309 12.416 0 10.6126 0H3.26542C1.46198 0 0 1.73309 0 3.87097V11.129C0 13.2669 1.46198 15 3.26542 15H10.6126C12.416 15 13.878 13.2669 13.878 11.129V3.87097ZM3.26498 1.16135H10.6122C11.8746 1.16135 12.898 2.37451 12.898 3.87102V11.1291C12.898 12.6256 11.8746 13.8388 10.6122 13.8388H3.26498C2.00257 13.8388 0.979189 12.6256 0.979189 11.1291V3.87102C0.979189 2.37451 2.00257 1.16135 3.26498 1.16135ZM19.8307 1.85919C19.9405 2.02836 20 2.23581 20 2.44924V12.3004C20 12.8349 19.6345 13.2682 19.1836 13.2682C19.0326 13.2682 18.8845 13.2185 18.7558 13.1246L15.4707 10.7281C14.9878 10.3759 14.6937 9.75188 14.6937 9.07976V6.27563C14.6937 5.67472 14.9291 5.1079 15.3309 4.74152L18.6859 1.68218C19.0433 1.35631 19.5558 1.43556 19.8307 1.85919ZM15.9284 5.66199L19.0206 2.84232V11.9541L15.9843 9.73912C15.7912 9.59822 15.6735 9.34862 15.6735 9.07977V6.27564C15.6735 6.03528 15.7677 5.80855 15.9284 5.66199Z" fill="white"/>
</svg>
