<svg width="20" height="20" viewBox="0 0 20 20" fill="none" xmlns="http://www.w3.org/2000/svg">
<path d="M10 1.66667C8.23193 1.66667 6.53624 2.36905 5.286 3.61929C4.03575 4.86953 3.33337 6.56522 3.33337 8.33333C3.33337 12.8333 9.20837 17.9167 9.45837 18.1333C9.60932 18.2624 9.80141 18.3334 10 18.3334C10.1987 18.3334 10.3908 18.2624 10.5417 18.1333C10.8334 17.9167 16.6667 12.8333 16.6667 8.33333C16.6667 6.56522 15.9643 4.86953 14.7141 3.61929C13.4638 2.36905 11.7682 1.66667 10 1.66667ZM10 16.375C8.22504 14.7083 5.00004 11.1167 5.00004 8.33333C5.00004 7.00725 5.52682 5.73548 6.46451 4.7978C7.40219 3.86012 8.67396 3.33333 10 3.33333C11.3261 3.33333 12.5979 3.86012 13.5356 4.7978C14.4733 5.73548 15 7.00725 15 8.33333C15 11.1167 11.775 14.7167 10 16.375ZM10 5C9.34077 5 8.6963 5.1955 8.14814 5.56177C7.59998 5.92804 7.17273 6.44864 6.92044 7.05772C6.66815 7.66681 6.60214 8.33703 6.73076 8.98364C6.85937 9.63024 7.17684 10.2242 7.64302 10.6904C8.10919 11.1565 8.70314 11.474 9.34974 11.6026C9.99634 11.7312 10.6666 11.6652 11.2757 11.4129C11.8847 11.1606 12.4053 10.7334 12.7716 10.1852C13.1379 9.63707 13.3334 8.99261 13.3334 8.33333C13.3334 7.44928 12.9822 6.60143 12.3571 5.97631C11.7319 5.35119 10.8841 5 10 5ZM10 10C9.6704 10 9.34817 9.90225 9.07409 9.71912C8.80001 9.53598 8.58639 9.27568 8.46024 8.97114C8.3341 8.6666 8.30109 8.33149 8.3654 8.00818C8.42971 7.68488 8.58844 7.38791 8.82153 7.15482C9.05462 6.92174 9.35159 6.763 9.67489 6.69869C9.99819 6.63438 10.3333 6.66739 10.6378 6.79354C10.9424 6.91968 11.2027 7.1333 11.3858 7.40738C11.569 7.68147 11.6667 8.0037 11.6667 8.33333C11.6667 8.77536 11.4911 9.19929 11.1786 9.51185C10.866 9.82441 10.4421 10 10 10Z" fill="#EF802F"/>
</svg>
