<svg width="43" height="37" viewBox="0 0 43 37" fill="none" xmlns="http://www.w3.org/2000/svg">
<path d="M17.5 15.5C22.7078 15.5 26.9286 12.0307 26.9286 7.75C26.9286 3.46934 22.7078 0 17.5 0C12.2922 0 8.07143 3.46934 8.07143 7.75C8.07143 12.0307 12.2922 15.5 17.5 15.5ZM24.5567 17.4738L21.0357 29.0625L18.6786 20.8281L21.0357 17.4375H13.9643L16.3214 20.8281L13.9643 29.0625L10.4433 17.4738C5.19129 17.6797 1 21.2096 1 25.575V28.0938C1 29.6982 2.58371 31 4.53571 31H30.4643C32.4163 31 34 29.6982 34 28.0938V25.575C34 21.2096 29.8087 17.6797 24.5567 17.4738Z" fill="#707477"/>
</svg>
