<svg width="19" height="17" viewBox="0 0 19 17" fill="none" xmlns="http://www.w3.org/2000/svg">
<path fill-rule="evenodd" clip-rule="evenodd" d="M11.4484 6.31961C11.4484 8.59015 9.45207 10.6392 6.72422 10.6392C3.99637 10.6392 2 8.59015 2 6.31961C2 4.04907 3.99637 2 6.72422 2C9.45207 2 11.4484 4.04907 11.4484 6.31961ZM10.6912 11.4228C9.57917 12.1877 8.20781 12.6392 6.72422 12.6392C3.01054 12.6392 0 9.80984 0 6.31961C0 2.82939 3.01054 0 6.72422 0C10.4379 0 13.4484 2.82939 13.4484 6.31961C13.4484 7.71391 12.968 9.00274 12.1542 10.0479L18.0885 15.625L16.6255 17L10.6912 11.4228Z" fill="black"/>
</svg>
